<svg xmlns="http://www.w3.org/2000/svg" viewBox="0 0 100 100" width="100%" height="100%">
  <defs>
    <linearGradient id="lexisGradient" x1="10%" y1="10%" x2="90%" y2="90%">
      <stop offset="0%" stop-color="#6366F1" />
      <stop offset="50%" stop-color="#7C3AED" />
      <stop offset="100%" stop-color="#A855F7" />
    </linearGradient>
  </defs>

  <!-- Transparent Background - Pure Isolated Logo Mark -->
  <g fill="none" stroke="url(#lexisGradient)" stroke-width="6.5" stroke-linecap="round" stroke-linejoin="round">
    <!-- Vertical 'L' Stem -->
    <path d="M38 22 V54" />
    
    <!-- Fluid Wave Ribbon & Gesture Loop -->
    <path d="M38 54 C34 54 26 50 26 62 C26 70 34 70 38 62 C43 52 50 42 62 42 C72 42 78 48 78 54 C78 62 68 70 56 70 C48 70 42 64 38 54" />
    
    <!-- Upper Harmonic Crest -->
    <path d="M48 48 C54 36 64 34 76 38 C72 44 68 50 62 52" />
  </g>
</svg>
